<mxGraphModel><root><mxCell id="0"/><mxCell id="1" parent="0"/><mxCell id="2" value="User" style="shape=umlLifeline;perimeter=lifelinePerimeter;whiteSpace=wrap;container=1;dropTarget=0;collapsible=0;recursiveResize=0;outlineConnect=0;portConstraint=eastwest;newEdgeStyle={&quot;edgeStyle&quot;:&quot;elbowEdgeStyle&quot;,&quot;elbow&quot;:&quot;vertical&quot;,&quot;curved&quot;:0,&quot;rounded&quot;:0};size=65;fillColor=#e3fcef;strokeColor=#2e7d32;fontColor=#1b5e20;fontStyle=1;" vertex="1" parent="1"><mxGeometry width="150" height="596" as="geometry"/></mxCell><mxCell id="3" value="Next.js Frontend" style="shape=umlLifeline;perimeter=lifelinePerimeter;whiteSpace=wrap;container=1;dropTarget=0;collapsible=0;recursiveResize=0;outlineConnect=0;portConstraint=eastwest;newEdgeStyle={&quot;edgeStyle&quot;:&quot;elbowEdgeStyle&quot;,&quot;elbow&quot;:&quot;vertical&quot;,&quot;curved&quot;:0,&quot;rounded&quot;:0};size=65;fillColor=#e3e9fc;strokeColor=#3949ab;fontColor=#1a237e;fontStyle=1;" vertex="1" parent="1"><mxGeometry x="236" width="150" height="596" as="geometry"/></mxCell><mxCell id="4" value="API Route (/api/weather)" style="shape=umlLifeline;perimeter=lifelinePerimeter;whiteSpace=wrap;container=1;dropTarget=0;collapsible=0;recursiveResize=0;outlineConnect=0;portConstraint=eastwest;newEdgeStyle={&quot;edgeStyle&quot;:&quot;elbowEdgeStyle&quot;,&quot;elbow&quot;:&quot;vertical&quot;,&quot;curved&quot;:0,&quot;rounded&quot;:0};size=65;fillColor=#fff3e0;strokeColor=#f57c00;fontColor=#e65100;fontStyle=1;" vertex="1" parent="1"><mxGeometry x="556" width="196" height="596" as="geometry"/></mxCell><mxCell id="5" value="OpenWeather Public API" style="shape=umlLifeline;perimeter=lifelinePerimeter;whiteSpace=wrap;container=1;dropTarget=0;collapsible=0;recursiveResize=0;outlineConnect=0;portConstraint=eastwest;newEdgeStyle={&quot;edgeStyle&quot;:&quot;elbowEdgeStyle&quot;,&quot;elbow&quot;:&quot;vertical&quot;,&quot;curved&quot;:0,&quot;rounded&quot;:0};size=65;fillColor=#fce4ec;strokeColor=#ad1457;fontColor=#880e4f;fontStyle=1;" vertex="1" parent="1"><mxGeometry x="802" width="197" height="596" as="geometry"/></mxCell><mxCell id="6" value="Mock Data" style="shape=umlLifeline;perimeter=lifelinePerimeter;whiteSpace=wrap;container=1;dropTarget=0;collapsible=0;recursiveResize=0;outlineConnect=0;portConstraint=eastwest;newEdgeStyle={&quot;edgeStyle&quot;:&quot;elbowEdgeStyle&quot;,&quot;elbow&quot;:&quot;vertical&quot;,&quot;curved&quot;:0,&quot;rounded&quot;:0};size=65;fillColor=#e1bee7;strokeColor=#6a1b9a;fontColor=#4a148c;fontStyle=1;" vertex="1" parent="1"><mxGeometry x="1049" width="150" height="596" as="geometry"/></mxCell><mxCell id="7" value="alt" style="shape=umlFrame;dashed=1;pointerEvents=0;dropTarget=0;strokeColor=#B3B3B3;height=20;width=30" vertex="1" parent="1"><mxGeometry x="300" y="219" width="835" height="282" as="geometry"/></mxCell><mxCell id="8" value="[Online mode enabled]" style="text;strokeColor=none;fillColor=none;align=center;verticalAlign=middle;whiteSpace=wrap;fontColor=#1976d2;fontStyle=2;" vertex="1" parent="7"><mxGeometry x="30" width="805" height="20" as="geometry"/></mxCell><mxCell id="9" value="[Offline mode enabled or OpenWeather fails]" style="shape=line;dashed=1;whiteSpace=wrap;verticalAlign=top;labelPosition=center;verticalLabelPosition=middle;align=center;strokeColor=#B3B3B3;fontColor=#ad1457;" vertex="1" parent="7"><mxGeometry y="146" width="835" height="4" as="geometry"/></mxCell><mxCell id="10" value="Requests weather data" style="verticalAlign=bottom;edgeStyle=elbowEdgeStyle;elbow=vertical;curved=0;rounded=0;endArrow=block;strokeColor=#1976d2;fontColor=#1976d2;strokeWidth=2;" edge="1" parent="1" source="2" target="3"><mxGeometry relative="1" as="geometry"><Array as="points"><mxPoint x="202" y="103"/></Array></mxGeometry></mxCell><mxCell id="11" value="Sends request to /api/weather" style="verticalAlign=bottom;edgeStyle=elbowEdgeStyle;elbow=vertical;curved=0;rounded=0;endArrow=block;strokeColor=#3949ab;fontColor=#3949ab;strokeWidth=2;" edge="1" parent="1" source="3" target="4"><mxGeometry relative="1" as="geometry"><Array as="points"><mxPoint x="491" y="151"/></Array></mxGeometry></mxCell><mxCell id="12" value="Fetch weather data" style="verticalAlign=bottom;edgeStyle=elbowEdgeStyle;elbow=vertical;curved=0;rounded=0;endArrow=block;strokeColor=#f57c00;fontColor=#f57c00;strokeWidth=2;" edge="1" parent="1" source="4" target="5"><mxGeometry relative="1" as="geometry"><Array as="points"><mxPoint x="786" y="199"/></Array></mxGeometry></mxCell><mxCell id="13" value="Returns weather data" style="verticalAlign=bottom;edgeStyle=elbowEdgeStyle;elbow=vertical;curved=0;rounded=0;dashed=1;dashPattern=2 3;endArrow=block;strokeColor=#f57c00;fontColor=#f57c00;strokeWidth=2;" edge="1" parent="1" source="5" target="4"><mxGeometry relative="1" as="geometry"><Array as="points"><mxPoint x="789" y="292"/></Array></mxGeometry></mxCell><mxCell id="14" value="Sends weather data to frontend" style="verticalAlign=bottom;edgeStyle=elbowEdgeStyle;elbow=vertical;curved=0;rounded=0;dashed=1;dashPattern=2 3;endArrow=block;strokeColor=#3949ab;fontColor=#3949ab;strokeWidth=2;" edge="1" parent="1" source="4" target="3"><mxGeometry relative="1" as="geometry"><Array as="points"><mxPoint x="494" y="340"/></Array></mxGeometry></mxCell><mxCell id="15" value="Returns mock weather data" style="verticalAlign=bottom;edgeStyle=elbowEdgeStyle;elbow=vertical;curved=0;rounded=0;dashed=1;dashPattern=2 3;endArrow=block;strokeColor=#6a1b9a;fontColor=#6a1b9a;strokeWidth=2;" edge="1" parent="1" source="6" target="4"><mxGeometry relative="1" as="geometry"><Array as="points"><mxPoint x="901" y="433"/></Array></mxGeometry></mxCell><mxCell id="16" value="Sends mock weather data to frontend" style="verticalAlign=bottom;edgeStyle=elbowEdgeStyle;elbow=vertical;curved=0;rounded=0;dashed=1;dashPattern=2 3;endArrow=block;strokeColor=#3949ab;fontColor=#3949ab;strokeWidth=2;" edge="1" parent="1" source="4" target="3"><mxGeometry relative="1" as="geometry"><Array as="points"><mxPoint x="494" y="481"/></Array></mxGeometry></mxCell></root></mxGraphModel>